<?xml version="1.0" encoding="UTF-8" standalone="no"?>
<!-- Created with Inkscape (http://www.inkscape.org/) -->

<svg
   width="100"
   height="100"
   viewBox="0 0 26.458333 26.458333"
   version="1.1"
   id="svg1"
   inkscape:version="1.4.2 (f4327f4, 2025-05-13)"
   sodipodi:docname="echo.svg"
   inkscape:export-filename="echo.png"
   inkscape:export-xdpi="122.88"
   inkscape:export-ydpi="122.88"
   xmlns:inkscape="http://www.inkscape.org/namespaces/inkscape"
   xmlns:sodipodi="http://sodipodi.sourceforge.net/DTD/sodipodi-0.dtd"
   xmlns="http://www.w3.org/2000/svg"
   xmlns:svg="http://www.w3.org/2000/svg">
  <sodipodi:namedview
     id="namedview1"
     pagecolor="#ffffff"
     bordercolor="#000000"
     borderopacity="0.25"
     inkscape:showpageshadow="2"
     inkscape:pageopacity="0.0"
     inkscape:pagecheckerboard="0"
     inkscape:deskcolor="#d1d1d1"
     inkscape:document-units="mm"
     inkscape:zoom="1.4142136"
     inkscape:cx="-112.42998"
     inkscape:cy="117.73328"
     inkscape:window-width="1920"
     inkscape:window-height="1009"
     inkscape:window-x="-8"
     inkscape:window-y="-8"
     inkscape:window-maximized="1"
     inkscape:current-layer="layer1" />
  <defs
     id="defs1" />
  <g
     inkscape:label="Layer 1"
     inkscape:groupmode="layer"
     id="layer1">
    <path
       id="path1"
       style="fill:#ffffff;stroke-width:0.231968"
       d="M 11.502759,0 A 13.229167,13.229167 0 0 1 24.731926,13.229167 13.229167,13.229167 0 0 1 11.502759,26.458333 13.229167,13.229167 0 0 1 8.195468,26.030969 13.229167,13.229167 0 0 0 18.117343,13.229167 13.229167,13.229167 0 0 0 8.195468,0.4273641 13.229167,13.229167 0 0 1 11.502759,0 Z" />
    <path
       id="path1-2"
       style="fill:#ffffff;stroke-width:0.173976"
       d="M 4.226717,3.3072917 A 9.9218754,9.9218754 0 0 1 14.148593,13.229167 9.9218754,9.9218754 0 0 1 4.226717,23.151041 9.9218754,9.9218754 0 0 1 1.74625,22.830518 9.9218754,9.9218754 0 0 0 9.187655,13.229167 9.9218754,9.9218754 0 0 0 1.74625,3.6278147 9.9218754,9.9218754 0 0 1 4.226717,3.3072917 Z" />
  </g>
</svg>
